M48
INCH,TZ
T1C0.012
%
G90
G05
T1
X250Y5670
X250Y5100
X250Y3670
X250Y800
X250Y250
X620Y2100
X690Y3330
X790Y2930
X1280Y5100
X1312Y3628
X1340Y3970
X1880Y5670
X2100Y240
X2230Y999
X2260Y3740
X2470Y250
X2701Y2889
X2701Y2416
X2701Y1944
X2701Y1471
X3140Y5100
X3170Y5670
X3170Y3770
X3174Y2889
X3174Y2416
X3174Y1944
X3174Y1471
X3646Y2889
X3646Y2416
X3646Y1944
X3646Y1471
X4119Y2889
X4119Y2416
X4119Y1944
X4119Y1471
X4350Y4190
X4350Y3760
X4390Y5670
X4390Y5100
X4630Y4520
X4630Y4520
X4960Y4520
X5350Y4590
X5440Y290
X5782Y2318
X5810Y1650
X6000Y3190
X6000Y2860
X6160Y1240
X6360Y3460
X6540Y5670
X6540Y5100
X6540Y2320
X6540Y1650
X6540Y290
T0
M30
