G04 #@! TF.FileFunction,Copper,L2,Bot,Signal*
%FSLAX46Y46*%
G04 Gerber Fmt 4.6, Leading zero omitted, Abs format (unit mm)*
G04 Created by KiCad (PCBNEW 4.0.0-stable) date Wednesday, March 16, 2016 'PMt' 09:11:23 PM*
%MOMM*%
G01*
G04 APERTURE LIST*
%ADD10C,0.100000*%
%ADD11C,0.609600*%
%ADD12C,0.254000*%
%ADD13C,0.381000*%
G04 APERTURE END LIST*
D10*
D11*
X92056140Y94356220D03*
X86595140Y94356220D03*
X81184940Y89454020D03*
X76079540Y94356220D03*
X80219740Y94356220D03*
X83496340Y94356220D03*
X77019340Y85288420D03*
X76079540Y81986420D03*
X76079540Y80589420D03*
X92056140Y80691020D03*
X89262140Y80691020D03*
X92056140Y84145420D03*
X90201940Y84145420D03*
X92056140Y85847220D03*
X91598940Y88742820D03*
X89033540Y91613020D03*
X92056140Y92908420D03*
X86493540Y90597020D03*
X88042940Y91435220D03*
X87204740Y91435220D03*
X87204740Y91435220D03*
X86595140Y92908420D03*
X83420140Y92908420D03*
X76079540Y89276220D03*
X78848140Y90038220D03*
X76079540Y92908420D03*
X78775930Y89168620D03*
X77197140Y88412620D03*
X86493540Y89504820D03*
X80778540Y80564020D03*
X91090940Y83104020D03*
X81718340Y80589420D03*
X81108740Y82491620D03*
X77451140Y87396620D03*
X90684540Y87218820D03*
X90684540Y88057020D03*
X78695740Y92908420D03*
X90129730Y85841220D03*
X83496340Y89530220D03*
X82305935Y87291617D03*
X83505935Y87291617D03*
X84705935Y87291617D03*
X85905935Y87291617D03*
X82305935Y86091617D03*
X83505935Y86091617D03*
X84705935Y86091617D03*
X85905935Y86091617D03*
X82305935Y84891617D03*
X83505935Y84891617D03*
X84705935Y84891617D03*
X85905935Y84891617D03*
X82305935Y83691617D03*
X83505935Y83691617D03*
X84705935Y83691617D03*
X85905935Y83691617D03*
D12*
X78775930Y89168620D02*
X79100120Y88844420D01*
X79100120Y88844420D02*
X85833140Y88844420D01*
X85833140Y88844420D02*
X86493540Y89504820D01*
D13*
X80398820Y81908930D02*
X81718340Y80589420D01*
X78775930Y86930710D02*
X78775930Y89168620D01*
X78775930Y86930710D02*
X80398820Y85307820D01*
X80398820Y81908930D02*
X80398820Y85307820D01*
D12*
G36*
X92396100Y80249060D02*
X75739180Y80249060D01*
X75739180Y83271335D01*
X81886360Y83271335D01*
X81901286Y83133814D01*
X82017883Y83065589D01*
X82145550Y83021422D01*
X82279380Y83003010D01*
X82414231Y83011061D01*
X82544920Y83045265D01*
X82666425Y83104308D01*
X82710584Y83133814D01*
X82725510Y83271335D01*
X83086360Y83271335D01*
X83101286Y83133814D01*
X83217883Y83065589D01*
X83345550Y83021422D01*
X83479380Y83003010D01*
X83614231Y83011061D01*
X83744920Y83045265D01*
X83866425Y83104308D01*
X83910584Y83133814D01*
X83925510Y83271335D01*
X84286360Y83271335D01*
X84301286Y83133814D01*
X84417883Y83065589D01*
X84545550Y83021422D01*
X84679380Y83003010D01*
X84814231Y83011061D01*
X84944920Y83045265D01*
X85066425Y83104308D01*
X85110584Y83133814D01*
X85125510Y83271335D01*
X85486360Y83271335D01*
X85501286Y83133814D01*
X85617883Y83065589D01*
X85745550Y83021422D01*
X85879380Y83003010D01*
X86014231Y83011061D01*
X86144920Y83045265D01*
X86266425Y83104308D01*
X86310584Y83133814D01*
X86325510Y83271335D01*
X85905935Y83690910D01*
X85486360Y83271335D01*
X85125510Y83271335D01*
X84705935Y83690910D01*
X84286360Y83271335D01*
X83925510Y83271335D01*
X83505935Y83690910D01*
X83086360Y83271335D01*
X82725510Y83271335D01*
X82305935Y83690910D01*
X81886360Y83271335D01*
X75739180Y83271335D01*
X75739180Y83718172D01*
X81617328Y83718172D01*
X81625379Y83583321D01*
X81659583Y83452632D01*
X81718626Y83331127D01*
X81748132Y83286968D01*
X81885653Y83272042D01*
X82305228Y83691617D01*
X82306642Y83691617D01*
X82726217Y83272042D01*
X82863738Y83286968D01*
X82905447Y83358249D01*
X82918626Y83331127D01*
X82948132Y83286968D01*
X83085653Y83272042D01*
X83505228Y83691617D01*
X83506642Y83691617D01*
X83926217Y83272042D01*
X84063738Y83286968D01*
X84105447Y83358249D01*
X84118626Y83331127D01*
X84148132Y83286968D01*
X84285653Y83272042D01*
X84705228Y83691617D01*
X84706642Y83691617D01*
X85126217Y83272042D01*
X85263738Y83286968D01*
X85305447Y83358249D01*
X85318626Y83331127D01*
X85348132Y83286968D01*
X85485653Y83272042D01*
X85905228Y83691617D01*
X85906642Y83691617D01*
X86326217Y83272042D01*
X86463738Y83286968D01*
X86531963Y83403565D01*
X86576130Y83531232D01*
X86594542Y83665062D01*
X86586491Y83799913D01*
X86552287Y83930602D01*
X86493244Y84052107D01*
X86463738Y84096266D01*
X86326217Y84111192D01*
X85906642Y83691617D01*
X85905228Y83691617D01*
X85485653Y84111192D01*
X85348132Y84096266D01*
X85306423Y84024985D01*
X85293244Y84052107D01*
X85263738Y84096266D01*
X85126217Y84111192D01*
X84706642Y83691617D01*
X84705228Y83691617D01*
X84285653Y84111192D01*
X84148132Y84096266D01*
X84106423Y84024985D01*
X84093244Y84052107D01*
X84063738Y84096266D01*
X83926217Y84111192D01*
X83506642Y83691617D01*
X83505228Y83691617D01*
X83085653Y84111192D01*
X82948132Y84096266D01*
X82906423Y84024985D01*
X82893244Y84052107D01*
X82863738Y84096266D01*
X82726217Y84111192D01*
X82306642Y83691617D01*
X82305228Y83691617D01*
X81885653Y84111192D01*
X81748132Y84096266D01*
X81679907Y83979669D01*
X81635740Y83852002D01*
X81617328Y83718172D01*
X75739180Y83718172D01*
X75739180Y84471335D01*
X81886360Y84471335D01*
X81901286Y84333814D01*
X81972567Y84292105D01*
X81945445Y84278926D01*
X81901286Y84249420D01*
X81886360Y84111899D01*
X82305935Y83692324D01*
X82725510Y84111899D01*
X82710584Y84249420D01*
X82639303Y84291129D01*
X82666425Y84304308D01*
X82710584Y84333814D01*
X82725510Y84471335D01*
X83086360Y84471335D01*
X83101286Y84333814D01*
X83172567Y84292105D01*
X83145445Y84278926D01*
X83101286Y84249420D01*
X83086360Y84111899D01*
X83505935Y83692324D01*
X83925510Y84111899D01*
X83910584Y84249420D01*
X83839303Y84291129D01*
X83866425Y84304308D01*
X83910584Y84333814D01*
X83925510Y84471335D01*
X84286360Y84471335D01*
X84301286Y84333814D01*
X84372567Y84292105D01*
X84345445Y84278926D01*
X84301286Y84249420D01*
X84286360Y84111899D01*
X84705935Y83692324D01*
X85125510Y84111899D01*
X85110584Y84249420D01*
X85039303Y84291129D01*
X85066425Y84304308D01*
X85110584Y84333814D01*
X85125510Y84471335D01*
X85486360Y84471335D01*
X85501286Y84333814D01*
X85572567Y84292105D01*
X85545445Y84278926D01*
X85501286Y84249420D01*
X85486360Y84111899D01*
X85905935Y83692324D01*
X86325510Y84111899D01*
X86310584Y84249420D01*
X86239303Y84291129D01*
X86266425Y84304308D01*
X86310584Y84333814D01*
X86325510Y84471335D01*
X85905935Y84890910D01*
X85486360Y84471335D01*
X85125510Y84471335D01*
X84705935Y84890910D01*
X84286360Y84471335D01*
X83925510Y84471335D01*
X83505935Y84890910D01*
X83086360Y84471335D01*
X82725510Y84471335D01*
X82305935Y84890910D01*
X81886360Y84471335D01*
X75739180Y84471335D01*
X75739180Y84918172D01*
X81617328Y84918172D01*
X81625379Y84783321D01*
X81659583Y84652632D01*
X81718626Y84531127D01*
X81748132Y84486968D01*
X81885653Y84472042D01*
X82305228Y84891617D01*
X82306642Y84891617D01*
X82726217Y84472042D01*
X82863738Y84486968D01*
X82905447Y84558249D01*
X82918626Y84531127D01*
X82948132Y84486968D01*
X83085653Y84472042D01*
X83505228Y84891617D01*
X83506642Y84891617D01*
X83926217Y84472042D01*
X84063738Y84486968D01*
X84105447Y84558249D01*
X84118626Y84531127D01*
X84148132Y84486968D01*
X84285653Y84472042D01*
X84705228Y84891617D01*
X84706642Y84891617D01*
X85126217Y84472042D01*
X85263738Y84486968D01*
X85305447Y84558249D01*
X85318626Y84531127D01*
X85348132Y84486968D01*
X85485653Y84472042D01*
X85905228Y84891617D01*
X85906642Y84891617D01*
X86326217Y84472042D01*
X86463738Y84486968D01*
X86531963Y84603565D01*
X86576130Y84731232D01*
X86594542Y84865062D01*
X86586491Y84999913D01*
X86552287Y85130602D01*
X86493244Y85252107D01*
X86463738Y85296266D01*
X86326217Y85311192D01*
X85906642Y84891617D01*
X85905228Y84891617D01*
X85485653Y85311192D01*
X85348132Y85296266D01*
X85306423Y85224985D01*
X85293244Y85252107D01*
X85263738Y85296266D01*
X85126217Y85311192D01*
X84706642Y84891617D01*
X84705228Y84891617D01*
X84285653Y85311192D01*
X84148132Y85296266D01*
X84106423Y85224985D01*
X84093244Y85252107D01*
X84063738Y85296266D01*
X83926217Y85311192D01*
X83506642Y84891617D01*
X83505228Y84891617D01*
X83085653Y85311192D01*
X82948132Y85296266D01*
X82906423Y85224985D01*
X82893244Y85252107D01*
X82863738Y85296266D01*
X82726217Y85311192D01*
X82306642Y84891617D01*
X82305228Y84891617D01*
X81885653Y85311192D01*
X81748132Y85296266D01*
X81679907Y85179669D01*
X81635740Y85052002D01*
X81617328Y84918172D01*
X75739180Y84918172D01*
X75739180Y85671335D01*
X81886360Y85671335D01*
X81901286Y85533814D01*
X81972567Y85492105D01*
X81945445Y85478926D01*
X81901286Y85449420D01*
X81886360Y85311899D01*
X82305935Y84892324D01*
X82725510Y85311899D01*
X82710584Y85449420D01*
X82639303Y85491129D01*
X82666425Y85504308D01*
X82710584Y85533814D01*
X82725510Y85671335D01*
X83086360Y85671335D01*
X83101286Y85533814D01*
X83172567Y85492105D01*
X83145445Y85478926D01*
X83101286Y85449420D01*
X83086360Y85311899D01*
X83505935Y84892324D01*
X83925510Y85311899D01*
X83910584Y85449420D01*
X83839303Y85491129D01*
X83866425Y85504308D01*
X83910584Y85533814D01*
X83925510Y85671335D01*
X84286360Y85671335D01*
X84301286Y85533814D01*
X84372567Y85492105D01*
X84345445Y85478926D01*
X84301286Y85449420D01*
X84286360Y85311899D01*
X84705935Y84892324D01*
X85125510Y85311899D01*
X85110584Y85449420D01*
X85039303Y85491129D01*
X85066425Y85504308D01*
X85110584Y85533814D01*
X85125510Y85671335D01*
X85486360Y85671335D01*
X85501286Y85533814D01*
X85572567Y85492105D01*
X85545445Y85478926D01*
X85501286Y85449420D01*
X85486360Y85311899D01*
X85905935Y84892324D01*
X86325510Y85311899D01*
X86310584Y85449420D01*
X86239303Y85491129D01*
X86266425Y85504308D01*
X86310584Y85533814D01*
X86325510Y85671335D01*
X85905935Y86090910D01*
X85486360Y85671335D01*
X85125510Y85671335D01*
X84705935Y86090910D01*
X84286360Y85671335D01*
X83925510Y85671335D01*
X83505935Y86090910D01*
X83086360Y85671335D01*
X82725510Y85671335D01*
X82305935Y86090910D01*
X81886360Y85671335D01*
X75739180Y85671335D01*
X75739180Y86118172D01*
X81617328Y86118172D01*
X81625379Y85983321D01*
X81659583Y85852632D01*
X81718626Y85731127D01*
X81748132Y85686968D01*
X81885653Y85672042D01*
X82305228Y86091617D01*
X82306642Y86091617D01*
X82726217Y85672042D01*
X82863738Y85686968D01*
X82905447Y85758249D01*
X82918626Y85731127D01*
X82948132Y85686968D01*
X83085653Y85672042D01*
X83505228Y86091617D01*
X83506642Y86091617D01*
X83926217Y85672042D01*
X84063738Y85686968D01*
X84105447Y85758249D01*
X84118626Y85731127D01*
X84148132Y85686968D01*
X84285653Y85672042D01*
X84705228Y86091617D01*
X84706642Y86091617D01*
X85126217Y85672042D01*
X85263738Y85686968D01*
X85305447Y85758249D01*
X85318626Y85731127D01*
X85348132Y85686968D01*
X85485653Y85672042D01*
X85905228Y86091617D01*
X85906642Y86091617D01*
X86326217Y85672042D01*
X86463738Y85686968D01*
X86531963Y85803565D01*
X86576130Y85931232D01*
X86594542Y86065062D01*
X86586491Y86199913D01*
X86552287Y86330602D01*
X86493244Y86452107D01*
X86463738Y86496266D01*
X86326217Y86511192D01*
X85906642Y86091617D01*
X85905228Y86091617D01*
X85485653Y86511192D01*
X85348132Y86496266D01*
X85306423Y86424985D01*
X85293244Y86452107D01*
X85263738Y86496266D01*
X85126217Y86511192D01*
X84706642Y86091617D01*
X84705228Y86091617D01*
X84285653Y86511192D01*
X84148132Y86496266D01*
X84106423Y86424985D01*
X84093244Y86452107D01*
X84063738Y86496266D01*
X83926217Y86511192D01*
X83506642Y86091617D01*
X83505228Y86091617D01*
X83085653Y86511192D01*
X82948132Y86496266D01*
X82906423Y86424985D01*
X82893244Y86452107D01*
X82863738Y86496266D01*
X82726217Y86511192D01*
X82306642Y86091617D01*
X82305228Y86091617D01*
X81885653Y86511192D01*
X81748132Y86496266D01*
X81679907Y86379669D01*
X81635740Y86252002D01*
X81617328Y86118172D01*
X75739180Y86118172D01*
X75739180Y86871335D01*
X81886360Y86871335D01*
X81901286Y86733814D01*
X81972567Y86692105D01*
X81945445Y86678926D01*
X81901286Y86649420D01*
X81886360Y86511899D01*
X82305935Y86092324D01*
X82725510Y86511899D01*
X82710584Y86649420D01*
X82639303Y86691129D01*
X82666425Y86704308D01*
X82710584Y86733814D01*
X82725510Y86871335D01*
X83086360Y86871335D01*
X83101286Y86733814D01*
X83172567Y86692105D01*
X83145445Y86678926D01*
X83101286Y86649420D01*
X83086360Y86511899D01*
X83505935Y86092324D01*
X83925510Y86511899D01*
X83910584Y86649420D01*
X83839303Y86691129D01*
X83866425Y86704308D01*
X83910584Y86733814D01*
X83925510Y86871335D01*
X84286360Y86871335D01*
X84301286Y86733814D01*
X84372567Y86692105D01*
X84345445Y86678926D01*
X84301286Y86649420D01*
X84286360Y86511899D01*
X84705935Y86092324D01*
X85125510Y86511899D01*
X85110584Y86649420D01*
X85039303Y86691129D01*
X85066425Y86704308D01*
X85110584Y86733814D01*
X85125510Y86871335D01*
X85486360Y86871335D01*
X85501286Y86733814D01*
X85572567Y86692105D01*
X85545445Y86678926D01*
X85501286Y86649420D01*
X85486360Y86511899D01*
X85905935Y86092324D01*
X86325510Y86511899D01*
X86310584Y86649420D01*
X86239303Y86691129D01*
X86266425Y86704308D01*
X86310584Y86733814D01*
X86325510Y86871335D01*
X85905935Y87290910D01*
X85486360Y86871335D01*
X85125510Y86871335D01*
X84705935Y87290910D01*
X84286360Y86871335D01*
X83925510Y86871335D01*
X83505935Y87290910D01*
X83086360Y86871335D01*
X82725510Y86871335D01*
X82305935Y87290910D01*
X81886360Y86871335D01*
X75739180Y86871335D01*
X75739180Y87318172D01*
X81617328Y87318172D01*
X81625379Y87183321D01*
X81659583Y87052632D01*
X81718626Y86931127D01*
X81748132Y86886968D01*
X81885653Y86872042D01*
X82305228Y87291617D01*
X82306642Y87291617D01*
X82726217Y86872042D01*
X82863738Y86886968D01*
X82905447Y86958249D01*
X82918626Y86931127D01*
X82948132Y86886968D01*
X83085653Y86872042D01*
X83505228Y87291617D01*
X83506642Y87291617D01*
X83926217Y86872042D01*
X84063738Y86886968D01*
X84105447Y86958249D01*
X84118626Y86931127D01*
X84148132Y86886968D01*
X84285653Y86872042D01*
X84705228Y87291617D01*
X84706642Y87291617D01*
X85126217Y86872042D01*
X85263738Y86886968D01*
X85305447Y86958249D01*
X85318626Y86931127D01*
X85348132Y86886968D01*
X85485653Y86872042D01*
X85905228Y87291617D01*
X85906642Y87291617D01*
X86326217Y86872042D01*
X86463738Y86886968D01*
X86531963Y87003565D01*
X86576130Y87131232D01*
X86594542Y87265062D01*
X86586491Y87399913D01*
X86552287Y87530602D01*
X86493244Y87652107D01*
X86463738Y87696266D01*
X86326217Y87711192D01*
X85906642Y87291617D01*
X85905228Y87291617D01*
X85485653Y87711192D01*
X85348132Y87696266D01*
X85306423Y87624985D01*
X85293244Y87652107D01*
X85263738Y87696266D01*
X85126217Y87711192D01*
X84706642Y87291617D01*
X84705228Y87291617D01*
X84285653Y87711192D01*
X84148132Y87696266D01*
X84106423Y87624985D01*
X84093244Y87652107D01*
X84063738Y87696266D01*
X83926217Y87711192D01*
X83506642Y87291617D01*
X83505228Y87291617D01*
X83085653Y87711192D01*
X82948132Y87696266D01*
X82906423Y87624985D01*
X82893244Y87652107D01*
X82863738Y87696266D01*
X82726217Y87711192D01*
X82306642Y87291617D01*
X82305228Y87291617D01*
X81885653Y87711192D01*
X81748132Y87696266D01*
X81679907Y87579669D01*
X81635740Y87452002D01*
X81617328Y87318172D01*
X75739180Y87318172D01*
X75739180Y87711899D01*
X81886360Y87711899D01*
X82305935Y87292324D01*
X82725510Y87711899D01*
X83086360Y87711899D01*
X83505935Y87292324D01*
X83925510Y87711899D01*
X84286360Y87711899D01*
X84705935Y87292324D01*
X85125510Y87711899D01*
X85486360Y87711899D01*
X85905935Y87292324D01*
X86325510Y87711899D01*
X86310584Y87849420D01*
X86193987Y87917645D01*
X86066320Y87961812D01*
X85932490Y87980224D01*
X85797639Y87972173D01*
X85666950Y87937969D01*
X85545445Y87878926D01*
X85501286Y87849420D01*
X85486360Y87711899D01*
X85125510Y87711899D01*
X85110584Y87849420D01*
X84993987Y87917645D01*
X84866320Y87961812D01*
X84732490Y87980224D01*
X84597639Y87972173D01*
X84466950Y87937969D01*
X84345445Y87878926D01*
X84301286Y87849420D01*
X84286360Y87711899D01*
X83925510Y87711899D01*
X83910584Y87849420D01*
X83793987Y87917645D01*
X83666320Y87961812D01*
X83532490Y87980224D01*
X83397639Y87972173D01*
X83266950Y87937969D01*
X83145445Y87878926D01*
X83101286Y87849420D01*
X83086360Y87711899D01*
X82725510Y87711899D01*
X82710584Y87849420D01*
X82593987Y87917645D01*
X82466320Y87961812D01*
X82332490Y87980224D01*
X82197639Y87972173D01*
X82066950Y87937969D01*
X81945445Y87878926D01*
X81901286Y87849420D01*
X81886360Y87711899D01*
X75739180Y87711899D01*
X75739180Y94696580D01*
X92396100Y94696580D01*
X92396100Y80249060D01*
X92396100Y80249060D01*
G37*
X92396100Y80249060D02*
X75739180Y80249060D01*
X75739180Y83271335D01*
X81886360Y83271335D01*
X81901286Y83133814D01*
X82017883Y83065589D01*
X82145550Y83021422D01*
X82279380Y83003010D01*
X82414231Y83011061D01*
X82544920Y83045265D01*
X82666425Y83104308D01*
X82710584Y83133814D01*
X82725510Y83271335D01*
X83086360Y83271335D01*
X83101286Y83133814D01*
X83217883Y83065589D01*
X83345550Y83021422D01*
X83479380Y83003010D01*
X83614231Y83011061D01*
X83744920Y83045265D01*
X83866425Y83104308D01*
X83910584Y83133814D01*
X83925510Y83271335D01*
X84286360Y83271335D01*
X84301286Y83133814D01*
X84417883Y83065589D01*
X84545550Y83021422D01*
X84679380Y83003010D01*
X84814231Y83011061D01*
X84944920Y83045265D01*
X85066425Y83104308D01*
X85110584Y83133814D01*
X85125510Y83271335D01*
X85486360Y83271335D01*
X85501286Y83133814D01*
X85617883Y83065589D01*
X85745550Y83021422D01*
X85879380Y83003010D01*
X86014231Y83011061D01*
X86144920Y83045265D01*
X86266425Y83104308D01*
X86310584Y83133814D01*
X86325510Y83271335D01*
X85905935Y83690910D01*
X85486360Y83271335D01*
X85125510Y83271335D01*
X84705935Y83690910D01*
X84286360Y83271335D01*
X83925510Y83271335D01*
X83505935Y83690910D01*
X83086360Y83271335D01*
X82725510Y83271335D01*
X82305935Y83690910D01*
X81886360Y83271335D01*
X75739180Y83271335D01*
X75739180Y83718172D01*
X81617328Y83718172D01*
X81625379Y83583321D01*
X81659583Y83452632D01*
X81718626Y83331127D01*
X81748132Y83286968D01*
X81885653Y83272042D01*
X82305228Y83691617D01*
X82306642Y83691617D01*
X82726217Y83272042D01*
X82863738Y83286968D01*
X82905447Y83358249D01*
X82918626Y83331127D01*
X82948132Y83286968D01*
X83085653Y83272042D01*
X83505228Y83691617D01*
X83506642Y83691617D01*
X83926217Y83272042D01*
X84063738Y83286968D01*
X84105447Y83358249D01*
X84118626Y83331127D01*
X84148132Y83286968D01*
X84285653Y83272042D01*
X84705228Y83691617D01*
X84706642Y83691617D01*
X85126217Y83272042D01*
X85263738Y83286968D01*
X85305447Y83358249D01*
X85318626Y83331127D01*
X85348132Y83286968D01*
X85485653Y83272042D01*
X85905228Y83691617D01*
X85906642Y83691617D01*
X86326217Y83272042D01*
X86463738Y83286968D01*
X86531963Y83403565D01*
X86576130Y83531232D01*
X86594542Y83665062D01*
X86586491Y83799913D01*
X86552287Y83930602D01*
X86493244Y84052107D01*
X86463738Y84096266D01*
X86326217Y84111192D01*
X85906642Y83691617D01*
X85905228Y83691617D01*
X85485653Y84111192D01*
X85348132Y84096266D01*
X85306423Y84024985D01*
X85293244Y84052107D01*
X85263738Y84096266D01*
X85126217Y84111192D01*
X84706642Y83691617D01*
X84705228Y83691617D01*
X84285653Y84111192D01*
X84148132Y84096266D01*
X84106423Y84024985D01*
X84093244Y84052107D01*
X84063738Y84096266D01*
X83926217Y84111192D01*
X83506642Y83691617D01*
X83505228Y83691617D01*
X83085653Y84111192D01*
X82948132Y84096266D01*
X82906423Y84024985D01*
X82893244Y84052107D01*
X82863738Y84096266D01*
X82726217Y84111192D01*
X82306642Y83691617D01*
X82305228Y83691617D01*
X81885653Y84111192D01*
X81748132Y84096266D01*
X81679907Y83979669D01*
X81635740Y83852002D01*
X81617328Y83718172D01*
X75739180Y83718172D01*
X75739180Y84471335D01*
X81886360Y84471335D01*
X81901286Y84333814D01*
X81972567Y84292105D01*
X81945445Y84278926D01*
X81901286Y84249420D01*
X81886360Y84111899D01*
X82305935Y83692324D01*
X82725510Y84111899D01*
X82710584Y84249420D01*
X82639303Y84291129D01*
X82666425Y84304308D01*
X82710584Y84333814D01*
X82725510Y84471335D01*
X83086360Y84471335D01*
X83101286Y84333814D01*
X83172567Y84292105D01*
X83145445Y84278926D01*
X83101286Y84249420D01*
X83086360Y84111899D01*
X83505935Y83692324D01*
X83925510Y84111899D01*
X83910584Y84249420D01*
X83839303Y84291129D01*
X83866425Y84304308D01*
X83910584Y84333814D01*
X83925510Y84471335D01*
X84286360Y84471335D01*
X84301286Y84333814D01*
X84372567Y84292105D01*
X84345445Y84278926D01*
X84301286Y84249420D01*
X84286360Y84111899D01*
X84705935Y83692324D01*
X85125510Y84111899D01*
X85110584Y84249420D01*
X85039303Y84291129D01*
X85066425Y84304308D01*
X85110584Y84333814D01*
X85125510Y84471335D01*
X85486360Y84471335D01*
X85501286Y84333814D01*
X85572567Y84292105D01*
X85545445Y84278926D01*
X85501286Y84249420D01*
X85486360Y84111899D01*
X85905935Y83692324D01*
X86325510Y84111899D01*
X86310584Y84249420D01*
X86239303Y84291129D01*
X86266425Y84304308D01*
X86310584Y84333814D01*
X86325510Y84471335D01*
X85905935Y84890910D01*
X85486360Y84471335D01*
X85125510Y84471335D01*
X84705935Y84890910D01*
X84286360Y84471335D01*
X83925510Y84471335D01*
X83505935Y84890910D01*
X83086360Y84471335D01*
X82725510Y84471335D01*
X82305935Y84890910D01*
X81886360Y84471335D01*
X75739180Y84471335D01*
X75739180Y84918172D01*
X81617328Y84918172D01*
X81625379Y84783321D01*
X81659583Y84652632D01*
X81718626Y84531127D01*
X81748132Y84486968D01*
X81885653Y84472042D01*
X82305228Y84891617D01*
X82306642Y84891617D01*
X82726217Y84472042D01*
X82863738Y84486968D01*
X82905447Y84558249D01*
X82918626Y84531127D01*
X82948132Y84486968D01*
X83085653Y84472042D01*
X83505228Y84891617D01*
X83506642Y84891617D01*
X83926217Y84472042D01*
X84063738Y84486968D01*
X84105447Y84558249D01*
X84118626Y84531127D01*
X84148132Y84486968D01*
X84285653Y84472042D01*
X84705228Y84891617D01*
X84706642Y84891617D01*
X85126217Y84472042D01*
X85263738Y84486968D01*
X85305447Y84558249D01*
X85318626Y84531127D01*
X85348132Y84486968D01*
X85485653Y84472042D01*
X85905228Y84891617D01*
X85906642Y84891617D01*
X86326217Y84472042D01*
X86463738Y84486968D01*
X86531963Y84603565D01*
X86576130Y84731232D01*
X86594542Y84865062D01*
X86586491Y84999913D01*
X86552287Y85130602D01*
X86493244Y85252107D01*
X86463738Y85296266D01*
X86326217Y85311192D01*
X85906642Y84891617D01*
X85905228Y84891617D01*
X85485653Y85311192D01*
X85348132Y85296266D01*
X85306423Y85224985D01*
X85293244Y85252107D01*
X85263738Y85296266D01*
X85126217Y85311192D01*
X84706642Y84891617D01*
X84705228Y84891617D01*
X84285653Y85311192D01*
X84148132Y85296266D01*
X84106423Y85224985D01*
X84093244Y85252107D01*
X84063738Y85296266D01*
X83926217Y85311192D01*
X83506642Y84891617D01*
X83505228Y84891617D01*
X83085653Y85311192D01*
X82948132Y85296266D01*
X82906423Y85224985D01*
X82893244Y85252107D01*
X82863738Y85296266D01*
X82726217Y85311192D01*
X82306642Y84891617D01*
X82305228Y84891617D01*
X81885653Y85311192D01*
X81748132Y85296266D01*
X81679907Y85179669D01*
X81635740Y85052002D01*
X81617328Y84918172D01*
X75739180Y84918172D01*
X75739180Y85671335D01*
X81886360Y85671335D01*
X81901286Y85533814D01*
X81972567Y85492105D01*
X81945445Y85478926D01*
X81901286Y85449420D01*
X81886360Y85311899D01*
X82305935Y84892324D01*
X82725510Y85311899D01*
X82710584Y85449420D01*
X82639303Y85491129D01*
X82666425Y85504308D01*
X82710584Y85533814D01*
X82725510Y85671335D01*
X83086360Y85671335D01*
X83101286Y85533814D01*
X83172567Y85492105D01*
X83145445Y85478926D01*
X83101286Y85449420D01*
X83086360Y85311899D01*
X83505935Y84892324D01*
X83925510Y85311899D01*
X83910584Y85449420D01*
X83839303Y85491129D01*
X83866425Y85504308D01*
X83910584Y85533814D01*
X83925510Y85671335D01*
X84286360Y85671335D01*
X84301286Y85533814D01*
X84372567Y85492105D01*
X84345445Y85478926D01*
X84301286Y85449420D01*
X84286360Y85311899D01*
X84705935Y84892324D01*
X85125510Y85311899D01*
X85110584Y85449420D01*
X85039303Y85491129D01*
X85066425Y85504308D01*
X85110584Y85533814D01*
X85125510Y85671335D01*
X85486360Y85671335D01*
X85501286Y85533814D01*
X85572567Y85492105D01*
X85545445Y85478926D01*
X85501286Y85449420D01*
X85486360Y85311899D01*
X85905935Y84892324D01*
X86325510Y85311899D01*
X86310584Y85449420D01*
X86239303Y85491129D01*
X86266425Y85504308D01*
X86310584Y85533814D01*
X86325510Y85671335D01*
X85905935Y86090910D01*
X85486360Y85671335D01*
X85125510Y85671335D01*
X84705935Y86090910D01*
X84286360Y85671335D01*
X83925510Y85671335D01*
X83505935Y86090910D01*
X83086360Y85671335D01*
X82725510Y85671335D01*
X82305935Y86090910D01*
X81886360Y85671335D01*
X75739180Y85671335D01*
X75739180Y86118172D01*
X81617328Y86118172D01*
X81625379Y85983321D01*
X81659583Y85852632D01*
X81718626Y85731127D01*
X81748132Y85686968D01*
X81885653Y85672042D01*
X82305228Y86091617D01*
X82306642Y86091617D01*
X82726217Y85672042D01*
X82863738Y85686968D01*
X82905447Y85758249D01*
X82918626Y85731127D01*
X82948132Y85686968D01*
X83085653Y85672042D01*
X83505228Y86091617D01*
X83506642Y86091617D01*
X83926217Y85672042D01*
X84063738Y85686968D01*
X84105447Y85758249D01*
X84118626Y85731127D01*
X84148132Y85686968D01*
X84285653Y85672042D01*
X84705228Y86091617D01*
X84706642Y86091617D01*
X85126217Y85672042D01*
X85263738Y85686968D01*
X85305447Y85758249D01*
X85318626Y85731127D01*
X85348132Y85686968D01*
X85485653Y85672042D01*
X85905228Y86091617D01*
X85906642Y86091617D01*
X86326217Y85672042D01*
X86463738Y85686968D01*
X86531963Y85803565D01*
X86576130Y85931232D01*
X86594542Y86065062D01*
X86586491Y86199913D01*
X86552287Y86330602D01*
X86493244Y86452107D01*
X86463738Y86496266D01*
X86326217Y86511192D01*
X85906642Y86091617D01*
X85905228Y86091617D01*
X85485653Y86511192D01*
X85348132Y86496266D01*
X85306423Y86424985D01*
X85293244Y86452107D01*
X85263738Y86496266D01*
X85126217Y86511192D01*
X84706642Y86091617D01*
X84705228Y86091617D01*
X84285653Y86511192D01*
X84148132Y86496266D01*
X84106423Y86424985D01*
X84093244Y86452107D01*
X84063738Y86496266D01*
X83926217Y86511192D01*
X83506642Y86091617D01*
X83505228Y86091617D01*
X83085653Y86511192D01*
X82948132Y86496266D01*
X82906423Y86424985D01*
X82893244Y86452107D01*
X82863738Y86496266D01*
X82726217Y86511192D01*
X82306642Y86091617D01*
X82305228Y86091617D01*
X81885653Y86511192D01*
X81748132Y86496266D01*
X81679907Y86379669D01*
X81635740Y86252002D01*
X81617328Y86118172D01*
X75739180Y86118172D01*
X75739180Y86871335D01*
X81886360Y86871335D01*
X81901286Y86733814D01*
X81972567Y86692105D01*
X81945445Y86678926D01*
X81901286Y86649420D01*
X81886360Y86511899D01*
X82305935Y86092324D01*
X82725510Y86511899D01*
X82710584Y86649420D01*
X82639303Y86691129D01*
X82666425Y86704308D01*
X82710584Y86733814D01*
X82725510Y86871335D01*
X83086360Y86871335D01*
X83101286Y86733814D01*
X83172567Y86692105D01*
X83145445Y86678926D01*
X83101286Y86649420D01*
X83086360Y86511899D01*
X83505935Y86092324D01*
X83925510Y86511899D01*
X83910584Y86649420D01*
X83839303Y86691129D01*
X83866425Y86704308D01*
X83910584Y86733814D01*
X83925510Y86871335D01*
X84286360Y86871335D01*
X84301286Y86733814D01*
X84372567Y86692105D01*
X84345445Y86678926D01*
X84301286Y86649420D01*
X84286360Y86511899D01*
X84705935Y86092324D01*
X85125510Y86511899D01*
X85110584Y86649420D01*
X85039303Y86691129D01*
X85066425Y86704308D01*
X85110584Y86733814D01*
X85125510Y86871335D01*
X85486360Y86871335D01*
X85501286Y86733814D01*
X85572567Y86692105D01*
X85545445Y86678926D01*
X85501286Y86649420D01*
X85486360Y86511899D01*
X85905935Y86092324D01*
X86325510Y86511899D01*
X86310584Y86649420D01*
X86239303Y86691129D01*
X86266425Y86704308D01*
X86310584Y86733814D01*
X86325510Y86871335D01*
X85905935Y87290910D01*
X85486360Y86871335D01*
X85125510Y86871335D01*
X84705935Y87290910D01*
X84286360Y86871335D01*
X83925510Y86871335D01*
X83505935Y87290910D01*
X83086360Y86871335D01*
X82725510Y86871335D01*
X82305935Y87290910D01*
X81886360Y86871335D01*
X75739180Y86871335D01*
X75739180Y87318172D01*
X81617328Y87318172D01*
X81625379Y87183321D01*
X81659583Y87052632D01*
X81718626Y86931127D01*
X81748132Y86886968D01*
X81885653Y86872042D01*
X82305228Y87291617D01*
X82306642Y87291617D01*
X82726217Y86872042D01*
X82863738Y86886968D01*
X82905447Y86958249D01*
X82918626Y86931127D01*
X82948132Y86886968D01*
X83085653Y86872042D01*
X83505228Y87291617D01*
X83506642Y87291617D01*
X83926217Y86872042D01*
X84063738Y86886968D01*
X84105447Y86958249D01*
X84118626Y86931127D01*
X84148132Y86886968D01*
X84285653Y86872042D01*
X84705228Y87291617D01*
X84706642Y87291617D01*
X85126217Y86872042D01*
X85263738Y86886968D01*
X85305447Y86958249D01*
X85318626Y86931127D01*
X85348132Y86886968D01*
X85485653Y86872042D01*
X85905228Y87291617D01*
X85906642Y87291617D01*
X86326217Y86872042D01*
X86463738Y86886968D01*
X86531963Y87003565D01*
X86576130Y87131232D01*
X86594542Y87265062D01*
X86586491Y87399913D01*
X86552287Y87530602D01*
X86493244Y87652107D01*
X86463738Y87696266D01*
X86326217Y87711192D01*
X85906642Y87291617D01*
X85905228Y87291617D01*
X85485653Y87711192D01*
X85348132Y87696266D01*
X85306423Y87624985D01*
X85293244Y87652107D01*
X85263738Y87696266D01*
X85126217Y87711192D01*
X84706642Y87291617D01*
X84705228Y87291617D01*
X84285653Y87711192D01*
X84148132Y87696266D01*
X84106423Y87624985D01*
X84093244Y87652107D01*
X84063738Y87696266D01*
X83926217Y87711192D01*
X83506642Y87291617D01*
X83505228Y87291617D01*
X83085653Y87711192D01*
X82948132Y87696266D01*
X82906423Y87624985D01*
X82893244Y87652107D01*
X82863738Y87696266D01*
X82726217Y87711192D01*
X82306642Y87291617D01*
X82305228Y87291617D01*
X81885653Y87711192D01*
X81748132Y87696266D01*
X81679907Y87579669D01*
X81635740Y87452002D01*
X81617328Y87318172D01*
X75739180Y87318172D01*
X75739180Y87711899D01*
X81886360Y87711899D01*
X82305935Y87292324D01*
X82725510Y87711899D01*
X83086360Y87711899D01*
X83505935Y87292324D01*
X83925510Y87711899D01*
X84286360Y87711899D01*
X84705935Y87292324D01*
X85125510Y87711899D01*
X85486360Y87711899D01*
X85905935Y87292324D01*
X86325510Y87711899D01*
X86310584Y87849420D01*
X86193987Y87917645D01*
X86066320Y87961812D01*
X85932490Y87980224D01*
X85797639Y87972173D01*
X85666950Y87937969D01*
X85545445Y87878926D01*
X85501286Y87849420D01*
X85486360Y87711899D01*
X85125510Y87711899D01*
X85110584Y87849420D01*
X84993987Y87917645D01*
X84866320Y87961812D01*
X84732490Y87980224D01*
X84597639Y87972173D01*
X84466950Y87937969D01*
X84345445Y87878926D01*
X84301286Y87849420D01*
X84286360Y87711899D01*
X83925510Y87711899D01*
X83910584Y87849420D01*
X83793987Y87917645D01*
X83666320Y87961812D01*
X83532490Y87980224D01*
X83397639Y87972173D01*
X83266950Y87937969D01*
X83145445Y87878926D01*
X83101286Y87849420D01*
X83086360Y87711899D01*
X82725510Y87711899D01*
X82710584Y87849420D01*
X82593987Y87917645D01*
X82466320Y87961812D01*
X82332490Y87980224D01*
X82197639Y87972173D01*
X82066950Y87937969D01*
X81945445Y87878926D01*
X81901286Y87849420D01*
X81886360Y87711899D01*
X75739180Y87711899D01*
X75739180Y94696580D01*
X92396100Y94696580D01*
X92396100Y80249060D01*
M02*
