M48
INCH,TZ
T1C0.012
%
G90
G05
T1
X29953Y37148
X29953Y36578
X29953Y35148
X29953Y32278
X29953Y31728
X30323Y33578
X30393Y34808
X30493Y34408
X30983Y36578
X31014Y35106
X31043Y35448
X31583Y37148
X31803Y31718
X31933Y32477
X31963Y35218
X32173Y31728
X32404Y34367
X32404Y33894
X32404Y33422
X32404Y32949
X32843Y36578
X32873Y37148
X32873Y35248
X32876Y34367
X32876Y33894
X32876Y33422
X32876Y32949
X33349Y34367
X33349Y33894
X33349Y33422
X33349Y32949
X33821Y34367
X33821Y33894
X33821Y33422
X33821Y32949
X34053Y35668
X34053Y35238
X34093Y37148
X34093Y36578
X34333Y35998
X34333Y35998
X34663Y35998
X35053Y36068
X35143Y31768
X35484Y33796
X35513Y33128
X35703Y34668
X35703Y34338
X35863Y32718
X36063Y34938
X36243Y37148
X36243Y36578
X36243Y33798
X36243Y33128
X36243Y31768
T0
M30
