G04 #@! TF.FileFunction,Legend,Top*
%FSLAX46Y46*%
G04 Gerber Fmt 4.6, Leading zero omitted, Abs format (unit mm)*
G04 Created by KiCad (PCBNEW 4.0.0-stable) date Wednesday, March 16, 2016 'PMt' 09:11:23 PM*
%MOMM*%
G01*
G04 APERTURE LIST*
%ADD10C,0.100000*%
%ADD11C,0.150000*%
G04 APERTURE END LIST*
D10*
X81938371Y93900497D02*
X81892362Y93904522D01*
X81804371Y93958581D01*
X81762388Y94008614D01*
X81724430Y94104657D01*
X81732481Y94196674D01*
X81761523Y94263674D01*
X81840598Y94372656D01*
X81915649Y94435631D01*
X82036707Y94494581D01*
X82107733Y94511548D01*
X82199749Y94503497D01*
X82287741Y94449438D01*
X82329724Y94399405D01*
X82367682Y94303363D01*
X82363657Y94257355D01*
X82308169Y93358177D02*
X82056271Y93658379D01*
X82182220Y93508278D02*
X82707573Y93949102D01*
X82590540Y93936161D01*
X82498522Y93944211D01*
X82431523Y93973253D01*
X83106414Y93473782D02*
X83148397Y93423748D01*
X83165364Y93352723D01*
X83161338Y93306715D01*
X83132296Y93239715D01*
X83053220Y93130732D01*
X82928136Y93025774D01*
X82807078Y92966824D01*
X82736052Y92949857D01*
X82690044Y92953883D01*
X82623044Y92982924D01*
X82581060Y93032959D01*
X82564094Y93103984D01*
X82568119Y93149992D01*
X82597162Y93216992D01*
X82676237Y93325975D01*
X82801322Y93430933D01*
X82922381Y93489883D01*
X82993406Y93506849D01*
X83039414Y93502824D01*
X83106414Y93473782D01*
X80011014Y91817827D02*
X79801098Y92067995D01*
X80326452Y92508819D01*
X80641325Y92133568D02*
X80914216Y91808349D01*
X80567140Y91815534D01*
X80630115Y91740483D01*
X80647082Y91669458D01*
X80643057Y91623450D01*
X80614014Y91556449D01*
X80488930Y91451492D01*
X80417905Y91434525D01*
X80371896Y91438550D01*
X80304897Y91467592D01*
X80178947Y91617693D01*
X80161981Y91688718D01*
X80166005Y91734727D01*
X81539443Y90405857D02*
X81539443Y90079286D01*
X80853643Y90079286D01*
X80918957Y90601800D02*
X80886300Y90634457D01*
X80853643Y90699771D01*
X80853643Y90863057D01*
X80886300Y90928371D01*
X80918957Y90961028D01*
X80984271Y90993685D01*
X81049586Y90993685D01*
X81147557Y90961028D01*
X81539443Y90569142D01*
X81539443Y90993685D01*
X76297971Y87283471D02*
X76265314Y87250814D01*
X76167343Y87218157D01*
X76102029Y87218157D01*
X76004057Y87250814D01*
X75938743Y87316129D01*
X75906086Y87381443D01*
X75873429Y87512071D01*
X75873429Y87610043D01*
X75906086Y87740671D01*
X75938743Y87805986D01*
X76004057Y87871300D01*
X76102029Y87903957D01*
X76167343Y87903957D01*
X76265314Y87871300D01*
X76297971Y87838643D01*
X76885800Y87675357D02*
X76885800Y87218157D01*
X76722514Y87936614D02*
X76559229Y87446757D01*
X76983771Y87446757D01*
X83460971Y80813691D02*
X83428314Y80781034D01*
X83330343Y80748377D01*
X83265029Y80748377D01*
X83167057Y80781034D01*
X83101743Y80846349D01*
X83069086Y80911663D01*
X83036429Y81042291D01*
X83036429Y81140263D01*
X83069086Y81270891D01*
X83101743Y81336206D01*
X83167057Y81401520D01*
X83265029Y81434177D01*
X83330343Y81434177D01*
X83428314Y81401520D01*
X83460971Y81368863D01*
X84081457Y81434177D02*
X83754886Y81434177D01*
X83722229Y81107606D01*
X83754886Y81140263D01*
X83820200Y81172920D01*
X83983486Y81172920D01*
X84048800Y81140263D01*
X84081457Y81107606D01*
X84114114Y81042291D01*
X84114114Y80879006D01*
X84081457Y80813691D01*
X84048800Y80781034D01*
X83983486Y80748377D01*
X83820200Y80748377D01*
X83754886Y80781034D01*
X83722229Y80813691D01*
X91525271Y87778771D02*
X91492614Y87746114D01*
X91394643Y87713457D01*
X91329329Y87713457D01*
X91231357Y87746114D01*
X91166043Y87811429D01*
X91133386Y87876743D01*
X91100729Y88007371D01*
X91100729Y88105343D01*
X91133386Y88235971D01*
X91166043Y88301286D01*
X91231357Y88366600D01*
X91329329Y88399257D01*
X91394643Y88399257D01*
X91492614Y88366600D01*
X91525271Y88333943D01*
X91753871Y88399257D02*
X92211071Y88399257D01*
X91917157Y87713457D01*
X91888129Y91690371D02*
X91920786Y91657714D01*
X91953443Y91559743D01*
X91953443Y91494429D01*
X91920786Y91396457D01*
X91855471Y91331143D01*
X91790157Y91298486D01*
X91659529Y91265829D01*
X91561557Y91265829D01*
X91430929Y91298486D01*
X91365614Y91331143D01*
X91300300Y91396457D01*
X91267643Y91494429D01*
X91267643Y91559743D01*
X91300300Y91657714D01*
X91332957Y91690371D01*
X91953443Y92343514D02*
X91953443Y91951629D01*
X91953443Y92147571D02*
X91267643Y92147571D01*
X91365614Y92082257D01*
X91430929Y92016943D01*
X91463586Y91951629D01*
X89487111Y91683777D02*
X89944311Y90997977D01*
X89944311Y91683777D02*
X89487111Y90997977D01*
X90564797Y90997977D02*
X90172912Y90997977D01*
X90368854Y90997977D02*
X90368854Y91683777D01*
X90303540Y91585806D01*
X90238226Y91520491D01*
X90172912Y91487834D01*
X87798929Y92281791D02*
X87831586Y92249134D01*
X87864243Y92151163D01*
X87864243Y92085849D01*
X87831586Y91987877D01*
X87766271Y91922563D01*
X87700957Y91889906D01*
X87570329Y91857249D01*
X87472357Y91857249D01*
X87341729Y91889906D01*
X87276414Y91922563D01*
X87211100Y91987877D01*
X87178443Y92085849D01*
X87178443Y92151163D01*
X87211100Y92249134D01*
X87243757Y92281791D01*
X87472357Y92673677D02*
X87439700Y92608363D01*
X87407043Y92575706D01*
X87341729Y92543049D01*
X87309071Y92543049D01*
X87243757Y92575706D01*
X87211100Y92608363D01*
X87178443Y92673677D01*
X87178443Y92804306D01*
X87211100Y92869620D01*
X87243757Y92902277D01*
X87309071Y92934934D01*
X87341729Y92934934D01*
X87407043Y92902277D01*
X87439700Y92869620D01*
X87472357Y92804306D01*
X87472357Y92673677D01*
X87505014Y92608363D01*
X87537671Y92575706D01*
X87602986Y92543049D01*
X87733614Y92543049D01*
X87798929Y92575706D01*
X87831586Y92608363D01*
X87864243Y92673677D01*
X87864243Y92804306D01*
X87831586Y92869620D01*
X87798929Y92902277D01*
X87733614Y92934934D01*
X87602986Y92934934D01*
X87537671Y92902277D01*
X87505014Y92869620D01*
X87472357Y92804306D01*
X76234471Y88121671D02*
X76201814Y88089014D01*
X76103843Y88056357D01*
X76038529Y88056357D01*
X75940557Y88089014D01*
X75875243Y88154329D01*
X75842586Y88219643D01*
X75809929Y88350271D01*
X75809929Y88448243D01*
X75842586Y88578871D01*
X75875243Y88644186D01*
X75940557Y88709500D01*
X76038529Y88742157D01*
X76103843Y88742157D01*
X76201814Y88709500D01*
X76234471Y88676843D01*
X76561043Y88056357D02*
X76691671Y88056357D01*
X76756986Y88089014D01*
X76789643Y88121671D01*
X76854957Y88219643D01*
X76887614Y88350271D01*
X76887614Y88611529D01*
X76854957Y88676843D01*
X76822300Y88709500D01*
X76756986Y88742157D01*
X76626357Y88742157D01*
X76561043Y88709500D01*
X76528386Y88676843D01*
X76495729Y88611529D01*
X76495729Y88448243D01*
X76528386Y88382929D01*
X76561043Y88350271D01*
X76626357Y88317614D01*
X76756986Y88317614D01*
X76822300Y88350271D01*
X76854957Y88382929D01*
X76887614Y88448243D01*
X91499871Y86902471D02*
X91467214Y86869814D01*
X91369243Y86837157D01*
X91303929Y86837157D01*
X91205957Y86869814D01*
X91140643Y86935129D01*
X91107986Y87000443D01*
X91075329Y87131071D01*
X91075329Y87229043D01*
X91107986Y87359671D01*
X91140643Y87424986D01*
X91205957Y87490300D01*
X91303929Y87522957D01*
X91369243Y87522957D01*
X91467214Y87490300D01*
X91499871Y87457643D01*
X92087700Y87522957D02*
X91957071Y87522957D01*
X91891757Y87490300D01*
X91859100Y87457643D01*
X91793786Y87359671D01*
X91761129Y87229043D01*
X91761129Y86967786D01*
X91793786Y86902471D01*
X91826443Y86869814D01*
X91891757Y86837157D01*
X92022386Y86837157D01*
X92087700Y86869814D01*
X92120357Y86902471D01*
X92153014Y86967786D01*
X92153014Y87131071D01*
X92120357Y87196386D01*
X92087700Y87229043D01*
X92022386Y87261700D01*
X91891757Y87261700D01*
X91826443Y87229043D01*
X91793786Y87196386D01*
X91761129Y87131071D01*
X88687929Y92281791D02*
X88720586Y92249134D01*
X88753243Y92151163D01*
X88753243Y92085849D01*
X88720586Y91987877D01*
X88655271Y91922563D01*
X88589957Y91889906D01*
X88459329Y91857249D01*
X88361357Y91857249D01*
X88230729Y91889906D01*
X88165414Y91922563D01*
X88100100Y91987877D01*
X88067443Y92085849D01*
X88067443Y92151163D01*
X88100100Y92249134D01*
X88132757Y92281791D01*
X88132757Y92543049D02*
X88100100Y92575706D01*
X88067443Y92641020D01*
X88067443Y92804306D01*
X88100100Y92869620D01*
X88132757Y92902277D01*
X88198071Y92934934D01*
X88263386Y92934934D01*
X88361357Y92902277D01*
X88753243Y92510391D01*
X88753243Y92934934D01*
X83551686Y90171777D02*
X83551686Y89616606D01*
X83584343Y89551291D01*
X83617000Y89518634D01*
X83682314Y89485977D01*
X83812943Y89485977D01*
X83878257Y89518634D01*
X83910914Y89551291D01*
X83943571Y89616606D01*
X83943571Y90171777D01*
X84629371Y89485977D02*
X84237486Y89485977D01*
X84433428Y89485977D02*
X84433428Y90171777D01*
X84368114Y90073806D01*
X84302800Y90008491D01*
X84237486Y89975834D01*
X89529557Y83751057D02*
X89202986Y83751057D01*
X89202986Y84436857D01*
X90117385Y83751057D02*
X89725500Y83751057D01*
X89921442Y83751057D02*
X89921442Y84436857D01*
X89856128Y84338886D01*
X89790814Y84273571D01*
X89725500Y84240914D01*
X88675029Y83740171D02*
X88707686Y83707514D01*
X88740343Y83609543D01*
X88740343Y83544229D01*
X88707686Y83446257D01*
X88642371Y83380943D01*
X88577057Y83348286D01*
X88446429Y83315629D01*
X88348457Y83315629D01*
X88217829Y83348286D01*
X88152514Y83380943D01*
X88087200Y83446257D01*
X88054543Y83544229D01*
X88054543Y83609543D01*
X88087200Y83707514D01*
X88119857Y83740171D01*
X88054543Y83968771D02*
X88054543Y84393314D01*
X88315800Y84164714D01*
X88315800Y84262686D01*
X88348457Y84328000D01*
X88381114Y84360657D01*
X88446429Y84393314D01*
X88609714Y84393314D01*
X88675029Y84360657D01*
X88707686Y84328000D01*
X88740343Y84262686D01*
X88740343Y84066743D01*
X88707686Y84001429D01*
X88675029Y83968771D01*
X77999771Y84703557D02*
X78456971Y84017757D01*
X78456971Y84703557D02*
X77999771Y84017757D01*
X78685572Y84638243D02*
X78718229Y84670900D01*
X78783543Y84703557D01*
X78946829Y84703557D01*
X79012143Y84670900D01*
X79044800Y84638243D01*
X79077457Y84572929D01*
X79077457Y84507614D01*
X79044800Y84409643D01*
X78652914Y84017757D01*
X79077457Y84017757D01*
X78317271Y82533671D02*
X78284614Y82501014D01*
X78186643Y82468357D01*
X78121329Y82468357D01*
X78023357Y82501014D01*
X77958043Y82566329D01*
X77925386Y82631643D01*
X77892729Y82762271D01*
X77892729Y82860243D01*
X77925386Y82990871D01*
X77958043Y83056186D01*
X78023357Y83121500D01*
X78121329Y83154157D01*
X78186643Y83154157D01*
X78284614Y83121500D01*
X78317271Y83088843D01*
X78970414Y82468357D02*
X78578529Y82468357D01*
X78774471Y82468357D02*
X78774471Y83154157D01*
X78709157Y83056186D01*
X78643843Y82990871D01*
X78578529Y82958214D01*
X79231672Y83088843D02*
X79264329Y83121500D01*
X79329643Y83154157D01*
X79492929Y83154157D01*
X79558243Y83121500D01*
X79590900Y83088843D01*
X79623557Y83023529D01*
X79623557Y82958214D01*
X79590900Y82860243D01*
X79199014Y82468357D01*
X79623557Y82468357D01*
X79378629Y85556271D02*
X79411286Y85523614D01*
X79443943Y85425643D01*
X79443943Y85360329D01*
X79411286Y85262357D01*
X79345971Y85197043D01*
X79280657Y85164386D01*
X79150029Y85131729D01*
X79052057Y85131729D01*
X78921429Y85164386D01*
X78856114Y85197043D01*
X78790800Y85262357D01*
X78758143Y85360329D01*
X78758143Y85425643D01*
X78790800Y85523614D01*
X78823457Y85556271D01*
X79443943Y86209414D02*
X79443943Y85817529D01*
X79443943Y86013471D02*
X78758143Y86013471D01*
X78856114Y85948157D01*
X78921429Y85882843D01*
X78954086Y85817529D01*
X79443943Y86862557D02*
X79443943Y86470672D01*
X79443943Y86666614D02*
X78758143Y86666614D01*
X78856114Y86601300D01*
X78921429Y86535986D01*
X78954086Y86470672D01*
D11*
X81105935Y87991617D02*
X81605935Y88491617D01*
X86605935Y88491617D02*
X87105935Y88491617D01*
X87105935Y87991617D02*
X87105935Y88491617D01*
X87105935Y82491617D02*
X87105935Y82991617D01*
X86605935Y82491617D02*
X87105935Y82491617D01*
X81105935Y82491617D02*
X81605935Y82491617D01*
X81105935Y82491617D02*
X81105935Y82991617D01*
X77388335Y85610617D02*
X77388335Y84610617D01*
X75888335Y84610617D02*
X75888335Y85610617D01*
M02*
