G04 #@! TF.FileFunction,Soldermask,Top*
%FSLAX46Y46*%
G04 Gerber Fmt 4.6, Leading zero omitted, Abs format (unit mm)*
G04 Created by KiCad (PCBNEW 4.0.0-stable) date Wednesday, March 16, 2016 'PMt' 10:12:40 PM*
%MOMM*%
G01*
G04 APERTURE LIST*
%ADD10C,0.100000*%
%ADD11C,0.152400*%
%ADD12O,0.650001X0.200000*%
%ADD13O,0.200000X0.650001*%
%ADD14R,4.700001X4.700001*%
%ADD15C,0.609600*%
%ADD16R,0.499999X0.599999*%
%ADD17R,0.599999X0.499999*%
%ADD18R,0.650001X0.499999*%
%ADD19R,0.750001X0.800001*%
%ADD20R,0.800001X0.750001*%
%ADD21R,1.800000X1.000000*%
%ADD22R,0.900000X0.800000*%
G04 APERTURE END LIST*
D10*
D11*
X75444540Y79954420D02*
X75444540Y94991220D01*
X75444540Y79954420D02*
X92690740Y79954420D01*
X92690740Y79954420D02*
X92690740Y94991220D01*
X75444540Y94991220D02*
X92690740Y94991220D01*
X75444540Y94991220D02*
X92690740Y94991220D01*
X75444540Y79954420D02*
X75444540Y94991220D01*
X75444540Y79954420D02*
X92690740Y79954420D01*
X92690740Y79954420D02*
X92690740Y94991220D01*
D10*
G36*
X82243708Y93423399D02*
X82725799Y92848865D01*
X82112964Y92334635D01*
X81630873Y92909169D01*
X82243708Y93423399D01*
X82243708Y93423399D01*
G37*
G36*
X81375944Y94457559D02*
X81858035Y93883025D01*
X81245200Y93368795D01*
X80763109Y93943329D01*
X81375944Y94457559D01*
X81375944Y94457559D01*
G37*
D12*
X81080935Y87691617D03*
X81080935Y87291617D03*
X81080935Y86891617D03*
X81080935Y86491617D03*
X81080935Y86091617D03*
X81080935Y85691617D03*
X81080935Y85291617D03*
X81080935Y84891617D03*
X81080935Y84491617D03*
X81080935Y84091617D03*
X81080935Y83691617D03*
X81080935Y83291617D03*
D13*
X81905935Y82466617D03*
X82305935Y82466617D03*
X82705935Y82466617D03*
X83105935Y82466617D03*
X83505935Y82466617D03*
X83905935Y82466617D03*
X84305935Y82466617D03*
X84705935Y82466617D03*
X85105935Y82466617D03*
X85505935Y82466617D03*
X85905935Y82466617D03*
X86305935Y82466617D03*
D12*
X87130935Y83291617D03*
X87130935Y83691617D03*
X87130935Y84091617D03*
X87130935Y84491617D03*
X87130935Y84891617D03*
X87130935Y85291617D03*
X87130935Y85691617D03*
X87130935Y86091617D03*
X87130935Y86491617D03*
X87130935Y86891617D03*
X87130935Y87291617D03*
X87130935Y87691617D03*
D13*
X86305935Y88516617D03*
X85905935Y88516617D03*
X85505935Y88516617D03*
X85105935Y88516617D03*
X84705935Y88516617D03*
X84305935Y88516617D03*
X83905935Y88516617D03*
X83505935Y88516617D03*
X83105935Y88516617D03*
X82705935Y88516617D03*
X82305935Y88516617D03*
X81905935Y88516617D03*
D14*
X84105935Y85491617D03*
D15*
X82305935Y87291617D03*
X83505935Y87291617D03*
X84705935Y87291617D03*
X85905935Y87291617D03*
X82305935Y86091617D03*
X83505935Y86091617D03*
X84705935Y86091617D03*
X85905935Y86091617D03*
X82305935Y84891617D03*
X83505935Y84891617D03*
X84705935Y84891617D03*
X85905935Y84891617D03*
X82305935Y83691617D03*
X83505935Y83691617D03*
X84705935Y83691617D03*
X85905935Y83691617D03*
D16*
X87204735Y89589017D03*
X87204735Y90589017D03*
X88093735Y89589017D03*
X88093735Y90589017D03*
X91649735Y90589017D03*
X91649735Y89589017D03*
D17*
X88889135Y88107817D03*
X89889135Y88107817D03*
X88889135Y87218817D03*
X89889135Y87218817D03*
D18*
X89244335Y84983617D03*
X90194335Y84983617D03*
D16*
X88296935Y84991617D03*
X88296935Y85991617D03*
D17*
X77138335Y82799217D03*
X76138335Y82799217D03*
D16*
X78060735Y86448817D03*
X78060735Y85448817D03*
D17*
X79271935Y87371217D03*
X78271935Y87371217D03*
D19*
X79446935Y88412617D03*
X78096935Y88412617D03*
D20*
X82226335Y89774781D03*
X82226335Y91124781D03*
D10*
G36*
X81346582Y92578287D02*
X81764394Y92080358D01*
X81381374Y91758965D01*
X80963562Y92256894D01*
X81346582Y92578287D01*
X81346582Y92578287D01*
G37*
G36*
X80735934Y93306029D02*
X81153746Y92808100D01*
X80770726Y92486707D01*
X80352914Y92984636D01*
X80735934Y93306029D01*
X80735934Y93306029D01*
G37*
D21*
X76638335Y86360617D03*
X76638335Y83860617D03*
D17*
X80761135Y81402217D03*
X81761135Y81402217D03*
D22*
X89171735Y90639017D03*
X89171735Y89539017D03*
X90571735Y90639017D03*
X90571735Y89539017D03*
M02*
