G04 #@! TF.FileFunction,Paste,Top*
%FSLAX46Y46*%
G04 Gerber Fmt 4.6, Leading zero omitted, Abs format (unit mm)*
G04 Created by KiCad (PCBNEW 4.0.0-stable) date Wednesday, March 16, 2016 'PMt' 11:46:47 PM*
%MOMM*%
G01*
G04 APERTURE LIST*
%ADD10C,0.100000*%
%ADD11C,0.152400*%
%ADD12R,0.750001X0.800001*%
%ADD13O,0.650001X0.200000*%
%ADD14O,0.200000X0.650001*%
%ADD15R,2.820001X2.820001*%
%ADD16R,0.499999X0.599999*%
%ADD17R,0.599999X0.499999*%
%ADD18R,0.650001X0.499999*%
%ADD19R,0.800001X0.750001*%
%ADD20R,1.800000X1.000000*%
%ADD21R,0.900000X0.800000*%
G04 APERTURE END LIST*
D10*
D11*
X0Y0D02*
X0Y15036800D01*
X0Y0D02*
X17246200Y0D01*
X0Y15036800D02*
X17246200Y15036800D01*
X17246200Y0D02*
X17246200Y15036800D01*
D12*
X2652395Y8458197D03*
X4002395Y8458197D03*
D10*
G36*
X5800660Y13414375D02*
X5318569Y13988909D01*
X5931404Y14503139D01*
X6413495Y13928605D01*
X5800660Y13414375D01*
X5800660Y13414375D01*
G37*
G36*
X6668424Y12380215D02*
X6186333Y12954749D01*
X6799168Y13468979D01*
X7281259Y12894445D01*
X6668424Y12380215D01*
X6668424Y12380215D01*
G37*
D13*
X5636395Y7737197D03*
X5636395Y7337197D03*
X5636395Y6937197D03*
X5636395Y6537197D03*
X5636395Y6137197D03*
X5636395Y5737197D03*
X5636395Y5337197D03*
X5636395Y4937197D03*
X5636395Y4537197D03*
X5636395Y4137197D03*
X5636395Y3737197D03*
X5636395Y3337197D03*
D14*
X6461395Y2512197D03*
X6861395Y2512197D03*
X7261395Y2512197D03*
X7661395Y2512197D03*
X8061395Y2512197D03*
X8461395Y2512197D03*
X8861395Y2512197D03*
X9261395Y2512197D03*
X9661395Y2512197D03*
X10061395Y2512197D03*
X10461395Y2512197D03*
X10861395Y2512197D03*
D13*
X11686395Y3337197D03*
X11686395Y3737197D03*
X11686395Y4137197D03*
X11686395Y4537197D03*
X11686395Y4937197D03*
X11686395Y5337197D03*
X11686395Y5737197D03*
X11686395Y6137197D03*
X11686395Y6537197D03*
X11686395Y6937197D03*
X11686395Y7337197D03*
X11686395Y7737197D03*
D14*
X10861395Y8562197D03*
X10461395Y8562197D03*
X10061395Y8562197D03*
X9661395Y8562197D03*
X9261395Y8562197D03*
X8861395Y8562197D03*
X8461395Y8562197D03*
X8061395Y8562197D03*
X7661395Y8562197D03*
X7261395Y8562197D03*
X6861395Y8562197D03*
X6461395Y8562197D03*
D15*
X8661395Y5537197D03*
D16*
X11760195Y10634597D03*
X11760195Y9634597D03*
X12649195Y9634597D03*
X12649195Y10634597D03*
X16205195Y10634597D03*
X16205195Y9634597D03*
D17*
X14444595Y8153397D03*
X13444595Y8153397D03*
X14444595Y7264397D03*
X13444595Y7264397D03*
D18*
X13799795Y5029197D03*
X14749795Y5029197D03*
D16*
X12852395Y5037197D03*
X12852395Y6037197D03*
D17*
X693795Y2844797D03*
X1693795Y2844797D03*
D16*
X2616195Y5494397D03*
X2616195Y6494397D03*
D17*
X2827395Y7416797D03*
X3827395Y7416797D03*
D19*
X6781795Y11170361D03*
X6781795Y9820361D03*
D10*
G36*
X5326186Y12532287D02*
X4908374Y13030216D01*
X5291394Y13351609D01*
X5709206Y12853680D01*
X5326186Y12532287D01*
X5326186Y12532287D01*
G37*
G36*
X5936834Y11804545D02*
X5519022Y12302474D01*
X5902042Y12623867D01*
X6319854Y12125938D01*
X5936834Y11804545D01*
X5936834Y11804545D01*
G37*
D20*
X1193795Y6406197D03*
X1193795Y3906197D03*
D17*
X5316595Y1447797D03*
X6316595Y1447797D03*
D21*
X13727195Y10684597D03*
X13727195Y9584597D03*
X15127195Y10684597D03*
X15127195Y9584597D03*
M02*
